<?xml version="1.0" encoding="utf-8"?>
<!-- Generator: Adobe Illustrator 23.0.1, SVG Export Plug-In . SVG Version: 6.00 Build 0)  -->
<svg version="1.1" id="Layer_1" xmlns="http://www.w3.org/2000/svg" xmlns:xlink="http://www.w3.org/1999/xlink" x="0px" y="0px"
	 viewBox="0 0 80 80.8" style="enable-background:new 0 0 80 80.8;" xml:space="preserve">
<style type="text/css">
	.st0{fill:#609636;}
	.st1{fill:#FFFBE8;}
	.st2{fill:#90E5FC;}
	.st3{fill:#669843;}
	.st4{fill:#C6781A;}
	.st5{fill:#F3A538;}
	.st6{fill:#CC8A3A;}
	.st7{fill:#537A35;}
	.st8{fill:#F9BC73;}
	.st9{fill:#F0B630;}
	.st10{fill:#CC982F;}
	.st11{fill:#A8DD7F;}
	.st12{fill:#FFDB94;}
	.st13{fill:#E22028;}
	.st14{fill:#3D722E;}
	.st15{fill:#FF858E;}
	.st16{fill:#EA9626;}
	.st17{fill:#0D7005;}
	.st18{fill:#26A308;}
	.st19{fill:#105100;}
	.st20{fill:none;stroke:#FFFBE8;stroke-width:2.5911;stroke-linecap:round;stroke-linejoin:round;stroke-miterlimit:10;}
</style>
<title>B92EA103-AF3E-48E9-BCE0-BE2FFA04B785</title>
<g>
	<ellipse transform="matrix(0.2182 -0.9759 0.9759 0.2182 -6.8038 68.87)" class="st0" cx="39.6" cy="38.7" rx="35.6" ry="35.6"/>
	<ellipse transform="matrix(0.2184 -0.9759 0.9759 0.2184 -6.8086 68.8626)" class="st1" cx="39.6" cy="38.7" rx="32.4" ry="32.4"/>
	<ellipse transform="matrix(0.2184 -0.9758 0.9758 0.2184 -6.8108 68.8593)" class="st2" cx="39.6" cy="38.7" rx="30.9" ry="30.9"/>
	<g>
		<path class="st3" d="M33.7,28.4c0.1,0.1,0.1,0.3,0.1,0.5c0.7,0.2,1.7,0.2,2,1.1c0,0,0,0,0,0c1,0.5,2.1,0.1,3.2-0.1
			c-0.4,1.1-0.9,2.1-1,3.3c0.1,0,0.2-0.1,0.3-0.1c0.5-0.2,0.9-0.4,1.3-0.6c0.4-0.2,0.8-0.2,1.4,0.2c1-0.7,1.6-1.8,1.6-3l0,0
			c1,0.5,2.3,0.4,3.4-0.2c-0.1-0.6,0.2-1,0.5-1.3c0.3-0.3,0.7-0.5,1-0.9c0.1-0.1,0.1-0.1,0.2-0.2c-1.1-0.3-2.2-0.3-3.4-0.5
			c0.6-0.9,1.4-1.7,1.4-2.8c0,0,0,0,0,0c-0.6-0.6-0.2-1.5-0.1-2.2c-0.2-0.1-0.3-0.2-0.4-0.3c-0.4-0.4-0.5-0.9-0.6-1.5
			c0,0.4-0.2,0.7-0.4,0.9c-0.4,0.4-0.9,0.4-1.5,0.2c-0.5,0.8-0.7,1.5-1.4,2.1c-0.1-0.7-0.1-1.4-0.6-1.9c-0.6,0.1-1,0-1.2-0.2
			c-0.3-0.2-0.4-0.6-0.8-1c-0.8,0.5-1.6,0.5-2.2-0.1c-0.1-0.1-0.2-0.2-0.3-0.3c0.1,0.1,0.1,0.3,0.2,0.4c0.3,0.8-0.1,1.5-0.9,2
			c0.2,0.5,0.4,0.8,0.5,1.1c0.1,0.3,0.1,0.7-0.3,1.2c0.3,0.6,0.9,1,1.5,1.4c-0.9,0.3-1.6,0.2-2.5,0.3c-0.1,0.6-0.4,1.1-0.9,1.3
			c-0.3,0.1-0.6,0.1-1-0.1C33.1,27.5,33.5,27.9,33.7,28.4z"/>
		<g>
			<path class="st4" d="M60.2,40.8c-0.8,0-1.4-0.6-1.4-1.4c0-3.3-0.5-14.7-6.9-21.1c-3-3-7-4.5-11.8-4.4c-4.8,0-8.8,1.4-11.8,4.4
				c-6.4,6.4-6.9,17.8-6.9,21.1c0,0.8-0.6,1.4-1.4,1.4c-0.8,0-1.4-0.6-1.4-1.4c0-3.6,0.6-16,7.8-23.2c3.6-3.5,8.2-5.3,13.8-5.3
				c0.1,0,0.1,0,0.2,0c5.5,0,10.1,1.8,13.6,5.3c7.2,7.2,7.8,19.5,7.8,23.2C61.7,40.1,61,40.8,60.2,40.8z"/>
		</g>
		<g>
			<path class="st5" d="M48.6,27.1l0.9-2c0,0-3.3-1.2-4.4,0.6C44,27.6,48.6,27.1,48.6,27.1z"/>
			<path class="st5" d="M50.6,27.3l-0.5-2.2c0,0,3.5-0.6,4.2,1.5C55,28.6,50.6,27.3,50.6,27.3z"/>
			<path class="st6" d="M48.6,27.1c0,0-5.1-4.7-8.4,1.8c0.7,5.4,7.8,2.2,7.8,2.2L48.6,27.1z"/>
			<path class="st6" d="M50.6,27.3c0,0,5.9-3.7,7.9,3.3c-1.7,5.2-8.1,0.7-8.1,0.7L50.6,27.3z"/>
			<path class="st5" d="M47.3,27.6c0,0-1.1-2-4.4-1c-3.3,1.1-5.3,5.2-5.1,7.1c0.1,1.9,0.4,7.7,5.8,8.5C42.5,38,43.7,30.4,47.3,27.6z
				"/>
			<path class="st5" d="M51.8,28.1c0,0,1.5-1.8,4.5-0.1c3.1,1.7,4.2,6.1,3.7,7.9c-0.5,1.8-1.8,7.5-7.3,7.3
				C54.6,39.1,54.8,31.4,51.8,28.1z"/>
			<path class="st6" d="M48.3,28.3c0,0-1-1.4-3.2-0.6c-2,0.7-4.7,2.7-4.9,6.7c-0.3,4.1,2,8.3,4.6,8.8c2.6,0.5,2.2-0.4,2.2-0.4
				L48.3,28.3z"/>
			<path class="st6" d="M50.7,28.6c0,0,1.3-1.2,3.3,0c1.8,1.1,4.1,3.5,3.6,7.5c-0.5,4-3.5,7.8-6.1,7.8c-2.7,0-2.1-0.8-2.1-0.8
				L50.7,28.6z"/>
			<path class="st7" d="M48.6,27.1c0,0-0.8-0.4-1.2-0.5c0.7,0.5,0.5,1,0.5,1s-1.1-0.3-1.5-0.1c0.3-0.1,1.5,0.9,1.5,0.9l1.5,0.4
				l-0.2-1.1L48.6,27.1z"/>
			<path class="st7" d="M50.6,27.3c0,0,0.8-0.3,1.3-0.2c-0.7,0.4-0.7,0.9-0.7,0.9s1.1-0.1,1.5,0.2C52.4,28,51,28.7,51,28.7l-1.6,0.1
				l0.4-1L50.6,27.3z"/>
			<path class="st7" d="M48.6,27.1c0,0,0.8-3-0.6-6.3c0.5-0.4,2-0.2,2,0c0.5,0.9,0.8,6.5,0.8,6.5s1.2,1.9-0.2,1.8
				c-1.4-0.1-2.3-0.2-2.3-0.2S47.7,28,48.6,27.1z"/>
			<path class="st5" d="M49.5,27.8c0,0-2.9-0.3-4,3.5c-1,3.9-1.8,12.2,2.5,12.6c4.3,0.4,5.1-8,4.8-11.9C52.5,28,49.5,27.8,49.5,27.8
				z"/>
			<path class="st6" d="M47.9,43.6c-1.7-0.6-2.5-2.5-2.5-4.9c0-2.4,0.3-4.9,0.3-4.9s0.5,9.6,4.1,8.6C49.7,43,49.1,43.8,47.9,43.6z"
				/>
			<path class="st6" d="M41.3,41c0,0-2.6-2.2-3-5.6C38,32,38.9,31,38.9,31s-0.7,2.7,1,5.3C39.8,38,41.3,41,41.3,41z"/>
			<path class="st8" d="M49,28.4c0.7-0.1,2.9,0.4,3.1,3.5c0.2,3.1-0.3,5.2-0.3,5.2s0-3.8-1.1-5.6C49.7,29.7,48.3,28.5,49,28.4z"/>
			<path class="st8" d="M52.9,29.3c1.8-1,4.6,3.3,4.2,6.2c0,0-1.2-3-2.3-4.2C53.6,30.1,52.4,29.5,52.9,29.3z"/>
		</g>
		<g>
			<path class="st9" d="M28.8,27.4c0.1-0.3,0.1-0.7,0-1.1c-0.2-0.4-0.6-1.6-1.3-2c0,0,0,0,0-0.1c0.1-0.3,0.1-0.7,0-1
				c-0.3-0.7-0.8-1.4-1.4-1.7c0-0.1,0-0.3-0.1-0.5c-0.2-0.6-0.7-1.2-1.4-1.1c0,0-0.1,0-0.1,0c-0.5-0.7-1-1.2-1.6-1c0,0-0.1,0-0.1,0
				c-0.3-0.4-0.6-0.6-1.1-0.4c-0.5,0.2-0.6,0.5-0.6,1c0,0-0.1,0-0.1,0c0,0,0,0,0,0c-0.6,0.2-0.7,1-0.7,1.8c0,0-0.1,0-0.1,0
				c-0.5,0.3-0.6,1.1-0.4,1.7c0.1,0.2,0.2,0.4,0.3,0.5c-0.3,0.6-0.2,1.5,0,2.2c0.1,0.3,0.3,0.6,0.6,0.8c0,0,0,0,0.1,0
				c-0.3,0.7,0,1.9,0.1,2.3c0.1,0.4,0.3,0.7,0.7,0.9c-0.1,0.3-0.2,0.6-0.1,0.9l0.6,1.8c0.1,0.3,0.3,0.6,0.6,0.7
				c-0.2,0.3-0.2,0.6-0.1,0.9l0.6,1.8c0.2,0.6,0.9,0.9,1.5,0.7c0.2-0.1,0.4-0.2,0.6-0.4c0.3,0.1,0.6,0.2,0.9,0.1
				c0.3-0.1,0.5-0.3,0.6-0.5c0.2,0.1,0.5,0.1,0.8,0.1c0.3-0.1,0.5-0.3,0.6-0.5c0.3,0.1,0.5,0.1,0.8,0c0.3-0.1,0.5-0.3,0.7-0.6
				c0.2,0.1,0.5,0.1,0.7,0c0.6-0.2,0.9-0.9,0.7-1.5l-0.6-1.8c-0.1-0.3-0.3-0.6-0.6-0.7c0.2-0.3,0.2-0.6,0.1-0.9l-0.6-1.8
				C29.3,27.7,29.1,27.5,28.8,27.4z"/>
			<path class="st10" d="M21,21.5L21,21.5l-0.3,0.2c-0.4,0.3-0.2,1.2-0.1,1.4l0.3,0.3l-0.2,0.3c-0.2,0.3-0.2,1,0,1.9
				c0,0.2,0.1,0.4,0.3,0.5c0,0,0,0,0.1,0l0.4,0.2l-0.2,0.4c-0.2,0.5,0.1,1.6,0.2,2c0.1,0.2,0.2,0.5,0.4,0.6l0.4,0.2L22.1,30
				c-0.1,0.2-0.1,0.3,0,0.5l0.6,1.8c0.1,0.2,0.2,0.3,0.4,0.4l0.5,0.2l-0.3,0.5c-0.1,0.2-0.1,0.4-0.1,0.5l0.6,1.8
				c0.1,0.3,0.5,0.5,0.8,0.4c0.2-0.1,0.3-0.2,0.3-0.2l0.3-0.4l0.4,0.2c0.2,0.1,0.3,0.1,0.5,0c0.2-0.1,0.3-0.2,0.4-0.3l0.2-0.4
				l0.4,0.2c0.1,0.1,0.3,0.1,0.4,0c0.1,0,0.2-0.1,0.3-0.3l0.2-0.4l0.4,0.2c0.1,0,0.3,0.1,0.5,0c0.2-0.1,0.3-0.2,0.4-0.3l0-0.1
				c-1-1.1-5.2-1.6-5.9-5.2c-0.6-1-1.3-2.4-0.5-3.7c-0.5,0.4-1.8-0.5-1.2-2.3C20.8,23.1,20.7,22.1,21,21.5z"/>
			<path class="st7" d="M27.3,35.8c0.1-0.1,0-2.1,1.5-4.3c1.6-2.4,2-4.3,0.9-8.6c3.5,4.9,7.2,14.3,3.6,20.1
				c-3.5,5.8-3.7,0.1-3.7,0.1L27.3,35.8z"/>
			<path class="st3" d="M32.9,30.1c0.6,1.7,0.9,3.4,1,5.1c0.1,0.9,0.1,1.8,0,2.6c0,0.9-0.2,1.8-0.3,2.6c-0.3,1.5-0.8,3-1.5,4.3
				c-0.5,0.6-1,0.8-1.3,0.8c0-0.1,0.1-0.2,0.1-0.3c0.1-0.3,0.3-0.7,0.4-1c0.2-0.8,0.3-1.5,0.4-2.3c0.2-1.7,0.1-3.4-0.1-5.2
				c-0.2-1.7-0.6-3.4-1.1-5.1c0.7,1.6,1.2,3.3,1.5,5c0.1,0.9,0.2,1.7,0.3,2.6c0,0.3,0,0.5,0,0.8c0.2-1.2,0.2-2.5,0.2-3.7
				c-0.1-1.7-0.2-3.5-0.6-5.2c0.6,1.7,0.9,3.4,1,5.1c0.1,0.9,0.1,1.8,0,2.6c0,0.9-0.2,1.8-0.3,2.6c-0.2,0.9-0.4,1.8-0.7,2.6
				c0-0.1,0.1-0.2,0.1-0.3c0.2-0.4,0.3-0.8,0.5-1.2c0.3-0.8,0.5-1.6,0.7-2.5c0.3-1.7,0.4-3.4,0.4-5.1C33.4,33.6,33.3,31.8,32.9,30.1
				z"/>
			<path class="st3" d="M23,32.6c-3-2-4.2-5-5.2-6.6c-0.6,7.8,7,22.5,13.7,19.5C34.4,38.1,26.3,34.9,23,32.6z"/>
			<path class="st11" d="M30.3,45.8c-0.4,0.1-0.7,0.1-1.1,0c-1.1-0.7-2.1-1.5-3-2.3c-1.5-1.4-2.9-3-4-4.8c-1-1.5-1.8-3.5-2.4-5.7
				c0.7,1.6,1.7,3.8,2.9,5.4c0.6,0.8,1.2,1.6,1.9,2.4c0.7,0.8,1.4,1.5,2.1,2.1c0.7,0.7,1.5,1.3,2.3,1.9c0.3,0.2,0.6,0.4,0.9,0.6
				C30,45.6,30.2,45.7,30.3,45.8z"/>
			<path class="st11" d="M31,45.7c-0.2,0.1-0.4,0.1-0.7,0.2c-0.1-0.1-0.3-0.2-0.4-0.3c-0.8-0.7-1.5-1.4-2.2-2.1
				c-0.5-0.6-1.1-1.2-1.6-1.9c-1.4-1.8-2.9-4.1-3.9-6.3c1.7,2.5,3.6,4.9,4.4,5.8c0.5,0.6,1.1,1.2,1.6,1.8l0.8,0.9
				c0.1,0.1,0.8,0.8,1.4,1.4c0,0,0,0,0,0C30.7,45.3,30.9,45.5,31,45.7z"/>
			<path class="st11" d="M31.6,45.2c0,0.1-0.1,0.2-0.1,0.3c-0.1,0.1-0.2,0.1-0.4,0.1c-0.1-0.1-0.2-0.1-0.2-0.2
				c-0.1-0.1-0.2-0.2-0.3-0.3c0,0,0,0,0,0c-0.5-0.6-1-1.2-1.6-1.9c-0.5-0.6-0.9-1.3-1.3-1.9c-0.8-1.3-1.6-2.7-2.2-4.1
				c0.9,1.3,1.8,2.5,2.7,3.8C29.2,42.3,30.3,43.8,31.6,45.2z"/>
			<path class="st11" d="M29.1,45.2c0,0,0.8,0.8,1.2,0.2c0.3,0.1,0.4-0.4,0.4-0.4l0.8,0.5c0,0-1.2,0.5-1.8,0.4
				C29,45.7,29.1,45.2,29.1,45.2z"/>
			<path class="st12" d="M22.6,19.4c0,0,0.7-0.7,1.8,1.1c0.5-0.2,1.1,0.2,1.3,1.6c0.4-0.1,1.5,1.2,1.4,2.6c-0.2-0.7-1.4-2.1-2-2.1
				c-0.1-0.8-0.7-1.6-1.1-1.5C23.8,20.2,22.6,19.4,22.6,19.4z"/>
		</g>
		<g>
			<path class="st13" d="M42.1,30.5c-0.8-1.3-4.1-1.9-6.3-0.9c-3.5,1.6-5.5,8.5,2.1,11.9c7.9,2.6,11.1-4,9.5-7.5
				C46.4,31.8,43.5,30,42.1,30.5z"/>
			<path class="st14" d="M41.9,30.9c-0.8-0.3-3.1-1.4-2.5-3.4c0.2,0.5,1.1,1.8,1.7,2c-0.3-0.7-1.1-1-0.5-2.4
				c0.1,0.2,0.6,1.6,1.4,2.3c-0.3-0.5-0.5-1.6-0.1-2c0.1,0.3,0.3,1,0.7,1.7c0.7-0.3,1.4-0.6,1.6-0.8c0,0.6-0.9,1.3-1.4,1.5
				c1.1,0,2.4-0.7,2.6-0.8c-0.6,1.5-1.4,1.2-2,1.5c0.6,0.2,2.2-0.1,2.6-0.4C45.1,32,42.7,31.3,41.9,30.9z"/>
			<path class="st14" d="M42.3,29.7c0,0-0.2-2.2,1.7-3.4c0.3,0.4,0.5,0.6,0.5,0.6s-1.9,1.3-1.8,2.9C42.5,30.2,42.3,29.7,42.3,29.7z"
				/>
			<path class="st15" d="M45.2,32.6c1.4,0.8,3.8,5.8-2.3,7.8C47.8,36.6,41.8,31.3,45.2,32.6z"/>
		</g>
		<g>
			<path class="st4" d="M40,57.1L22.5,58c0,0-1.2,2,0.8,2.6c1.8,0.6,4.6,1.6,16.7,1.4c12.1,0.2,14.9-0.8,16.7-1.4
				c2-0.6,0.8-2.6,0.8-2.6L40,57.1z"/>
			<path class="st16" d="M40,52.4c-7.8,0-15.5-0.2-17.5-1.3c-3.8,2.2,0,6.9,0,6.9c4,2.4,31,2.4,35,0c0,0,3.8-4.7,0-6.9
				C55.5,52.2,47.8,52.4,40,52.4z"/>
			<path class="st4" d="M40,46.3c-8.2,0-17.3-0.1-19.3-1.3c-3.7,4.3,0.7,7.1,0.7,7.1c4.8,2.1,32.4,2.1,37.3,0c0,0,4.3-2.8,0.7-7.1
				C57.3,46.2,48.1,46.3,40,46.3z"/>
			<path class="st16" d="M40,39.5c-8.7-0.1-18.5-0.8-20.7-2.1c-4.1,3.5,0.7,8.5,0.7,8.5c4.9,1.8,35.4,1.7,40,0c0,0,4.7-5,0.7-8.5
				C58.5,38.7,48.7,39.4,40,39.5z"/>
			<g>
				<path class="st4" d="M40,41c-9.1,0-20.3-0.5-21.9-2.8c-0.5-0.7-0.3-1.6,0.4-2.1c0.6-0.4,1.4-0.3,1.9,0.1
					C20.7,36.5,23.9,38,40,38c15.3,0,19.4-1.4,19.4-1.5c0.5-0.7,1.4-0.9,2.1-0.4c0.7,0.5,0.9,1.4,0.4,2.1C60.3,40.6,49.1,41,40,41z
					 M20.5,36.5C20.5,36.5,20.5,36.5,20.5,36.5C20.5,36.5,20.5,36.5,20.5,36.5z M20.5,36.5C20.5,36.5,20.5,36.5,20.5,36.5
					C20.5,36.5,20.5,36.5,20.5,36.5z M20.5,36.5C20.5,36.5,20.5,36.5,20.5,36.5C20.5,36.5,20.5,36.5,20.5,36.5z"/>
			</g>
		</g>
	</g>
	<g>
		<path class="st17" d="M20.4,71.4c-4.7,1.3-9.3,3.2-13.7,5.5c0.2-2.4,0.6-4.8,1-7.3c-2.1-1.2-4.4-2.4-6.7-3.4
			c5.2-2.7,10.5-4.9,16.1-6.4C18.2,63.7,19.3,67.5,20.4,71.4z"/>
		<path class="st17" d="M58.8,71.4c4.7,1.3,9.3,3.2,13.7,5.5c-0.2-2.4-0.6-4.8-1-7.3c2.1-1.2,4.4-2.4,6.7-3.4
			c-5.2-2.7-10.5-4.9-16.1-6.4C61,63.7,59.9,67.5,58.8,71.4z"/>
		<path class="st18" d="M11.7,69.6c-1.5-3.8-3-7.5-4.5-11.3c20.8-8.3,44-8.3,64.7,0c-1.5,3.8-3,7.5-4.5,11.3
			C49.6,62.4,29.6,62.4,11.7,69.6z"/>
		<path class="st19" d="M20.4,71.4c-2.8-0.8-5.6-1.4-8.6-1.9c2.4-1,4.9-1.8,7.4-2.5C19.5,68.5,20,70,20.4,71.4z"/>
		<path class="st19" d="M58.8,71.4c2.8-0.8,5.6-1.4,8.6-1.9c-2.4-1-4.9-1.8-7.4-2.5C59.6,68.5,59.2,70,58.8,71.4z"/>
	</g>
	<g>
		<g>
			<path class="st1" d="M30.7,61.1c0.4,0.2,0.9,0.3,1.5,0.3c0.8-0.1,1.3-0.6,1.2-1.2c-0.1-0.6-0.4-0.9-1.3-1.1
				c-1.1-0.3-1.7-0.7-1.8-1.6c-0.1-1,0.6-1.8,1.9-1.9c0.6-0.1,1.1,0,1.4,0.2l-0.2,0.7c-0.2-0.1-0.7-0.2-1.2-0.2
				c-0.9,0.1-1.1,0.6-1.1,1.1c0.1,0.6,0.5,0.8,1.4,1.1c1.1,0.3,1.7,0.8,1.8,1.7c0.1,1-0.5,1.9-2,2c-0.6,0.1-1.3-0.1-1.6-0.2
				L30.7,61.1z"/>
			<path class="st1" d="M40.7,58.4c0,2.2-1.2,3.3-2.8,3.4c-1.7,0-2.9-1.2-2.9-3.1c0-2,1.2-3.3,2.8-3.4
				C39.5,55.2,40.6,56.5,40.7,58.4z M35.8,58.6c0,1.3,0.8,2.5,2.1,2.5c1.3,0,2-1.2,2-2.7c0-1.3-0.7-2.5-2.1-2.5
				C36.4,55.9,35.8,57.2,35.8,58.6z"/>
			<path class="st1" d="M42,55.3l0.8,0l-0.2,3l0,0c0.2-0.2,0.4-0.4,0.5-0.6l2-2.3l1,0.1l-2.4,2.5l2.3,3.7l-1-0.1l-1.9-3.2l-0.6,0.7
				l-0.1,2.4l-0.8,0L42,55.3z"/>
			<path class="st1" d="M48.1,55.8L47.4,62l-0.8-0.1l0.6-6.3L48.1,55.8z"/>
		</g>
	</g>
	<g>
		<g>
			<path class="st7" d="M20.2,70.7c-0.1-1.1-0.1-2.5-0.1-3.6h0c-0.3,1-0.6,2-1,3.1l-1.5,4h-0.8l-1.3-3.9c-0.4-1.2-0.7-2.2-1-3.2h0
				c0,1-0.1,2.4-0.2,3.6l-0.2,3.5h-1l0.6-8.2H15l1.4,4c0.3,1,0.6,1.9,0.8,2.8h0c0.2-0.8,0.5-1.7,0.9-2.8l1.5-4H21l0.5,8.2h-1
				L20.2,70.7z"/>
			<path class="st7" d="M24.2,66.1v8.2h-1.1v-8.2H24.2z"/>
			<path class="st7" d="M30.3,70.4h-3.2v3h3.6v0.9H26v-8.2h4.4V67h-3.4v2.6h3.2V70.4z"/>
			<path class="st7" d="M31.9,73c0.5,0.3,1.2,0.5,1.9,0.5c1.1,0,1.7-0.6,1.7-1.4c0-0.8-0.4-1.2-1.6-1.6c-1.3-0.5-2.2-1.2-2.2-2.3
				c0-1.3,1.1-2.2,2.7-2.2c0.8,0,1.5,0.2,1.8,0.4L36,67.2c-0.3-0.1-0.8-0.4-1.6-0.4c-1.1,0-1.6,0.7-1.6,1.2c0,0.8,0.5,1.1,1.6,1.6
				c1.4,0.5,2.1,1.2,2.1,2.4c0,1.3-0.9,2.4-2.9,2.4c-0.8,0-1.7-0.2-2.1-0.5L31.9,73z"/>
			<path class="st7" d="M37.5,73.7l4.6-6.7v0h-4.2v-0.9h5.6v0.6l-4.5,6.7v0h4.6v0.9h-6V73.7z"/>
			<path class="st7" d="M46.1,71.7l-0.9,2.6h-1.1l2.8-8.2h1.3l2.8,8.2h-1.1l-0.9-2.6H46.1z M48.8,70.9L48,68.5
				c-0.2-0.5-0.3-1-0.4-1.5h0c-0.1,0.5-0.3,1-0.4,1.5l-0.8,2.4H48.8z"/>
			<path class="st7" d="M52.3,74.3v-8.2h1.2l2.6,4.2c0.6,1,1.1,1.8,1.5,2.7l0,0c-0.1-1.1-0.1-2.1-0.1-3.4v-3.4h1v8.2h-1.1l-2.6-4.2
				c-0.6-0.9-1.1-1.9-1.5-2.7l0,0c0.1,1,0.1,2,0.1,3.4v3.5H52.3z"/>
			<path class="st7" d="M64.6,70.4h-3.2v3h3.6v0.9h-4.6v-8.2h4.4V67h-3.4v2.6h3.2V70.4z"/>
		</g>
		<g>
			<path class="st20" d="M20.2,70.7c-0.1-1.1-0.1-2.5-0.1-3.6h0c-0.3,1-0.6,2-1,3.1l-1.5,4h-0.8l-1.3-3.9c-0.4-1.2-0.7-2.2-1-3.2h0
				c0,1-0.1,2.4-0.2,3.6l-0.2,3.5h-1l0.6-8.2H15l1.4,4c0.3,1,0.6,1.9,0.8,2.8h0c0.2-0.8,0.5-1.7,0.9-2.8l1.5-4H21l0.5,8.2h-1
				L20.2,70.7z"/>
			<path class="st20" d="M24.2,66.1v8.2h-1.1v-8.2H24.2z"/>
			<path class="st20" d="M30.3,70.4h-3.2v3h3.6v0.9H26v-8.2h4.4V67h-3.4v2.6h3.2V70.4z"/>
			<path class="st20" d="M31.9,73c0.5,0.3,1.2,0.5,1.9,0.5c1.1,0,1.7-0.6,1.7-1.4c0-0.8-0.4-1.2-1.6-1.6c-1.3-0.5-2.2-1.2-2.2-2.3
				c0-1.3,1.1-2.2,2.7-2.2c0.8,0,1.5,0.2,1.8,0.4L36,67.2c-0.3-0.1-0.8-0.4-1.6-0.4c-1.1,0-1.6,0.7-1.6,1.2c0,0.8,0.5,1.1,1.6,1.6
				c1.4,0.5,2.1,1.2,2.1,2.4c0,1.3-0.9,2.4-2.9,2.4c-0.8,0-1.7-0.2-2.1-0.5L31.9,73z"/>
			<path class="st20" d="M37.5,73.7l4.6-6.7v0h-4.2v-0.9h5.6v0.6l-4.5,6.7v0h4.6v0.9h-6V73.7z"/>
			<path class="st20" d="M46.1,71.7l-0.9,2.6h-1.1l2.8-8.2h1.3l2.8,8.2h-1.1l-0.9-2.6H46.1z M48.8,70.9L48,68.5
				c-0.2-0.5-0.3-1-0.4-1.5h0c-0.1,0.5-0.3,1-0.4,1.5l-0.8,2.4H48.8z"/>
			<path class="st20" d="M52.3,74.3v-8.2h1.2l2.6,4.2c0.6,1,1.1,1.8,1.5,2.7l0,0c-0.1-1.1-0.1-2.1-0.1-3.4v-3.4h1v8.2h-1.1l-2.6-4.2
				c-0.6-0.9-1.1-1.9-1.5-2.7l0,0c0.1,1,0.1,2,0.1,3.4v3.5H52.3z"/>
			<path class="st20" d="M64.6,70.4h-3.2v3h3.6v0.9h-4.6v-8.2h4.4V67h-3.4v2.6h3.2V70.4z"/>
		</g>
		<g>
			<path class="st7" d="M20.2,70.7c-0.1-1.1-0.1-2.5-0.1-3.6h0c-0.3,1-0.6,2-1,3.1l-1.5,4h-0.8l-1.3-3.9c-0.4-1.2-0.7-2.2-1-3.2h0
				c0,1-0.1,2.4-0.2,3.6l-0.2,3.5h-1l0.6-8.2H15l1.4,4c0.3,1,0.6,1.9,0.8,2.8h0c0.2-0.8,0.5-1.7,0.9-2.8l1.5-4H21l0.5,8.2h-1
				L20.2,70.7z"/>
			<path class="st7" d="M24.2,66.1v8.2h-1.1v-8.2H24.2z"/>
			<path class="st7" d="M30.3,70.4h-3.2v3h3.6v0.9H26v-8.2h4.4V67h-3.4v2.6h3.2V70.4z"/>
			<path class="st7" d="M31.9,73c0.5,0.3,1.2,0.5,1.9,0.5c1.1,0,1.7-0.6,1.7-1.4c0-0.8-0.4-1.2-1.6-1.6c-1.3-0.5-2.2-1.2-2.2-2.3
				c0-1.3,1.1-2.2,2.7-2.2c0.8,0,1.5,0.2,1.8,0.4L36,67.2c-0.3-0.1-0.8-0.4-1.6-0.4c-1.1,0-1.6,0.7-1.6,1.2c0,0.8,0.5,1.1,1.6,1.6
				c1.4,0.5,2.1,1.2,2.1,2.4c0,1.3-0.9,2.4-2.9,2.4c-0.8,0-1.7-0.2-2.1-0.5L31.9,73z"/>
			<path class="st7" d="M37.5,73.7l4.6-6.7v0h-4.2v-0.9h5.6v0.6l-4.5,6.7v0h4.6v0.9h-6V73.7z"/>
			<path class="st7" d="M46.1,71.7l-0.9,2.6h-1.1l2.8-8.2h1.3l2.8,8.2h-1.1l-0.9-2.6H46.1z M48.8,70.9L48,68.5
				c-0.2-0.5-0.3-1-0.4-1.5h0c-0.1,0.5-0.3,1-0.4,1.5l-0.8,2.4H48.8z"/>
			<path class="st7" d="M52.3,74.3v-8.2h1.2l2.6,4.2c0.6,1,1.1,1.8,1.5,2.7l0,0c-0.1-1.1-0.1-2.1-0.1-3.4v-3.4h1v8.2h-1.1l-2.6-4.2
				c-0.6-0.9-1.1-1.9-1.5-2.7l0,0c0.1,1,0.1,2,0.1,3.4v3.5H52.3z"/>
			<path class="st7" d="M64.6,70.4h-3.2v3h3.6v0.9h-4.6v-8.2h4.4V67h-3.4v2.6h3.2V70.4z"/>
		</g>
	</g>
</g>
</svg>
