<?xml version="1.0" encoding="utf-8"?>
<!-- Generator: Adobe Illustrator 23.0.1, SVG Export Plug-In . SVG Version: 6.00 Build 0)  -->
<svg version="1.1" id="Layer_1" xmlns="http://www.w3.org/2000/svg" xmlns:xlink="http://www.w3.org/1999/xlink" x="0px" y="0px"
	 viewBox="0 0 80 80.8" style="enable-background:new 0 0 80 80.8;" xml:space="preserve">
<style type="text/css">
	.st0{fill:#609636;}
	.st1{fill:#FFFBE8;}
	.st2{fill:#90E5FC;}
	.st3{fill:#E22028;}
	.st4{fill:#3D722E;}
	.st5{fill:#FF858E;}
	.st6{fill:#FCA01B;}
	.st7{fill:#537A35;}
	.st8{fill:#DD891B;}
	.st9{fill:#FFC988;}
	.st10{fill:#F0B630;}
	.st11{fill:#CC982F;}
	.st12{fill:#669843;}
	.st13{fill:#A8DD7F;}
	.st14{fill:#FFDB94;}
	.st15{fill:#D36318;}
	.st16{fill:#F96E10;}
	.st17{fill:#A54E13;}
	.st18{fill:none;stroke:#FFFBE8;stroke-width:2.5911;stroke-linecap:round;stroke-linejoin:round;stroke-miterlimit:10;}
</style>
<title>B92EA103-AF3E-48E9-BCE0-BE2FFA04B785</title>
<g>
	<ellipse transform="matrix(0.2182 -0.9759 0.9759 0.2182 -6.8038 68.87)" class="st0" cx="39.6" cy="38.7" rx="35.6" ry="35.6"/>
	<ellipse transform="matrix(0.2184 -0.9759 0.9759 0.2184 -6.8086 68.8626)" class="st1" cx="39.6" cy="38.7" rx="32.4" ry="32.4"/>
	<ellipse transform="matrix(0.2184 -0.9758 0.9758 0.2184 -6.8108 68.8593)" class="st2" cx="39.6" cy="38.7" rx="30.9" ry="30.9"/>
	<g>
		<path class="st3" d="M61.7,38.9c-1.2-2-6.4-3-9.9-1.4c-5.5,2.4-8.6,13.4,3.3,18.7c12.5,4,17.4-6.3,14.9-11.7
			C68.5,41,64,38.2,61.7,38.9z"/>
		<path class="st4" d="M61.4,39.6c-1.3-0.5-4.8-2.2-3.9-5.3c0.3,0.8,1.8,2.9,2.7,3.2c-0.4-1.1-1.7-1.5-0.8-3.8
			c0.1,0.3,1,2.5,2.2,3.6c-0.5-0.8-0.8-2.5-0.1-3.2c0.1,0.4,0.5,1.5,1.1,2.6c1.1-0.5,2.1-1,2.5-1.2c0,1-1.4,2.1-2.2,2.3
			c1.7,0,3.8-1,4.1-1.2c-0.9,2.3-2.1,1.8-3.2,2.3c0.9,0.3,3.4-0.2,4.1-0.6C66.5,41.3,62.7,40.2,61.4,39.6z"/>
		<path class="st4" d="M62,37.7c0,0-0.3-3.4,2.7-5.3c0.5,0.7,0.7,0.9,0.7,0.9s-3,2-2.9,4.6C62.3,38.4,62,37.7,62,37.7z"/>
		<path class="st5" d="M66.5,42.2c2.2,1.3,6,9.1-3.6,12.3C70.6,48.5,61.2,40.2,66.5,42.2z"/>
	</g>
	<g>
		<path class="st6" d="M16.2,31.1c1.1-0.3,7.1-1.8,7.9,1.6c0.9,3.7,1.1,4.7,0.5,5.6c1.3,0.1,2.7,6.8,1.5,7.1
			c1.5,0.6,2.2,7.7,1.1,8.4c1.4,0.1,1.6,10.7-0.6,10.8c-1.9,1.2-7.7-7.7-6.6-8.6c-1.4,0-4.9-6.2-3.9-7.6c-1.2,0.4-3.7-5.9-2.7-6.7
			c-0.9-0.4-1.4-1.3-2.8-4.9C9.4,33.6,15.2,31.5,16.2,31.1z"/>
		<g>
			<path class="st7" d="M16.4,31.8c0.2,0.1,0.5-0.1,0.5-0.1s1.2-6.8,3.2-7.8c-1.3-1.2-3.3-0.3-3.3-0.3c-0.4,1.3-0.7,5.3-0.8,7
				c-1-1.4-3.6-4.5-4.6-5.4c0,0-2.1,0.4-2.5,2.1c2.2-0.3,7,4.6,7,4.6S16.3,32,16.4,31.8z"/>
			<path class="st7" d="M16.3,31.4c-0.1-1.4-0.3-7.3-0.2-8c-1.1-0.5-2-0.1-2.3,0.1c-0.3,0-1.3,0.1-1.9,1.2
				C12.5,25.2,15.6,30.2,16.3,31.4z"/>
		</g>
		<path class="st7" d="M16.4,31.8l0.6-0.9c0,0,1-0.4,1.9-0.3c-0.8,0.2-1.6,0.9-1.6,0.9c0.9-0.2,2.1,0.6,2.1,0.6s-1.7-0.2-2.3,0.2
			c0.3,0.3-0.1,1.9-0.1,1.9S15.9,33,16,32.6c-0.7,0-2,1.2-2,1.2s0.6-1.4,1.4-1.7c0,0-1-0.1-1.8,0.2c0.7-0.6,1.8-0.8,1.8-0.8
			L16.4,31.8z"/>
		<path class="st8" d="M20.3,31.1c0.9,0,1.7,0.1,2.3,0.5c0.5,0.3,0.8,0.7,0.9,1.2c0.9,3.5,1,4.5,0.6,5.1l-0.6,0.9l1,0.1
			c0.2,0.1,0.7,1,1.1,2.7c0.4,1.8,0.4,2.9,0.2,3.2l-1.8,0.5l1.8,0.7c0.1,0,0.6,0.6,0.9,2.3c0.5,2.4,0.3,4.7,0,5.1l-1.5,1l1.6,0.1
			c0.5,0.7,0.9,5.2,0.3,8.1c-0.3,1.1-0.6,1.5-0.7,1.5c0,0-0.2,0-0.2,0l-0.1,0.1c0,0,0,0,0,0c-0.1,0-0.6-0.1-1.4-0.8
			c-1.2-1.1-2.3-2.7-3.1-4.1C23.4,56.4,25.9,49,20.3,31.1z"/>
		<path class="st9" d="M13.3,33.5c0,0-2,1.1-1.7,2.3c0.4,1.2,1.3,5.6,2.9,5.7c-0.2,1.4,0.6,5.4,2.5,6.7c-1.1-2.3-0.9-7-0.9-7
			c-1.7-1.9-3.2-4.5-3.2-5.7S13.3,33.5,13.3,33.5z"/>
	</g>
	<g>
		<path class="st10" d="M46.9,27.8c0.5-0.5,0.7-1.2,0.6-2c-0.1-0.9-0.2-3.2-1.1-4.3c0,0,0.1-0.1,0.1-0.1c0.4-0.5,0.6-1.1,0.5-1.8
			c-0.2-1.4-0.6-3.1-1.4-3.9c0.1-0.2,0.2-0.5,0.2-1c-0.1-1.2-0.6-2.5-1.7-2.9c-0.1,0-0.1,0-0.2,0c-0.4-1.5-1-2.8-2.3-2.8
			c-0.1,0-0.1,0-0.2,0c-0.3-0.9-0.7-1.4-1.6-1.4c-0.9,0-1.4,0.5-1.6,1.4c-0.1,0-0.1,0-0.2,0c0,0,0,0,0,0c-1.2,0-1.8,1.3-2.3,2.8
			c-0.1,0-0.1,0-0.2,0c-1.2,0.3-1.7,1.7-1.7,2.9c0,0.4,0.1,0.7,0.2,1c-0.8,0.9-1.2,2.6-1.4,3.9c-0.1,0.6,0.1,1.3,0.5,1.8
			c0,0,0.1,0.1,0.1,0.1c-1,1.1-1.1,3.4-1.1,4.3c0,0.7,0.2,1.4,0.6,2c-0.4,0.4-0.7,0.9-0.7,1.5v3.5c0,0.6,0.3,1.2,0.7,1.6
			c-0.4,0.4-0.7,1-0.7,1.6v3.5c0,1.2,1,2.2,2.2,2.2c0.5,0,0.9-0.2,1.3-0.4c0.4,0.4,0.9,0.6,1.5,0.6c0.6,0,1.1-0.2,1.4-0.6
			c0.4,0.3,0.8,0.6,1.3,0.6c0.5,0,1-0.2,1.3-0.6c0.4,0.3,0.9,0.6,1.4,0.6c0.6,0,1.2-0.2,1.5-0.6c0.4,0.3,0.8,0.4,1.3,0.4
			c1.2,0,2.2-1,2.2-2.2v-3.5c0-0.6-0.3-1.2-0.7-1.6c0.4-0.4,0.7-1,0.7-1.6v-3.5C47.5,28.8,47.3,28.2,46.9,27.8z"/>
		<path class="st11" d="M36.4,12.8L36.4,12.8l-0.7,0.1c-0.8,0.3-1.1,2-0.9,2.4l0.3,0.6l-0.5,0.5c-0.5,0.5-0.9,1.7-1.1,3.4
			c-0.1,0.4,0,0.7,0.3,1c0,0,0.1,0,0.1,0.1l0.6,0.6l-0.6,0.7c-0.7,0.8-0.9,3-0.9,3.7c0,0.5,0.1,0.9,0.4,1.3l0.6,0.7l-0.6,0.6
			c-0.2,0.2-0.4,0.5-0.4,0.9v3.5c0,0.3,0.1,0.7,0.4,0.9l0.8,0.7l-0.8,0.7c-0.3,0.2-0.4,0.6-0.4,0.9v3.5c0,0.7,0.5,1.2,1.2,1.2
			c0.3,0,0.6-0.1,0.7-0.2l0.7-0.5l0.6,0.6c0.2,0.2,0.5,0.4,0.9,0.4c0.4,0,0.6-0.2,0.8-0.3l0.7-0.6l0.6,0.6c0.2,0.2,0.4,0.3,0.7,0.3
			c0.2,0,0.5-0.1,0.7-0.3l0.6-0.6l0.7,0.6c0.2,0.1,0.4,0.3,0.8,0.3c0.3,0,0.6-0.1,0.9-0.4l0.1-0.1c-1-2.6-8.3-6-7.5-12.8
			c-0.5-2.2-0.8-5,1.3-6.9c-1.2,0.5-2.8-2-0.7-4.7C35.2,15.3,35.5,13.5,36.4,12.8z"/>
		<path class="st7" d="M39,42c0.3-0.1,1.3-3.7,5.3-6.8c4.3-3.2,6.2-6.5,6.8-14.8c3.4,10.9,4.3,29.8-5.4,38.1
			c-9.8,8.3-6.6-2.1-6.6-2.1L39,42z"/>
		<path class="st12" d="M52.5,35.1c0,3.3-0.4,6.6-1.2,9.8c-0.4,1.6-0.9,3.2-1.5,4.7c-0.6,1.5-1.3,3-2.1,4.5
			c-1.4,2.5-3.2,4.8-5.3,6.8c-1.3,0.8-2.2,0.9-2.8,0.7c0.1-0.1,0.3-0.3,0.4-0.4c0.4-0.5,0.9-1,1.3-1.5c0.8-1.2,1.5-2.5,2.1-3.9
			c1.3-3,2.2-6.1,2.9-9.3c0.6-3.2,1-6.4,1.1-9.7c0.3,3.3,0.2,6.6-0.3,9.9c-0.2,1.6-0.6,3.3-1,4.9c-0.1,0.5-0.3,1-0.4,1.4
			c1-2.1,1.8-4.3,2.5-6.6c0.9-3.1,1.6-6.3,2-9.6c0,3.3-0.4,6.6-1.2,9.8c-0.4,1.6-0.9,3.2-1.5,4.7c-0.6,1.5-1.3,3-2.1,4.5
			c-0.8,1.5-1.8,2.9-2.9,4.2c0.1-0.1,0.3-0.3,0.4-0.4c0.5-0.6,1.1-1.2,1.6-1.9c1-1.3,1.9-2.6,2.7-4c1.6-2.8,2.8-5.8,3.7-9
			C51.4,41.6,52.1,38.4,52.5,35.1z"/>
		<path class="st12" d="M33.4,33.6c-4.1-5.4-4.5-11.3-5.4-14.8c-5.6,13.6-0.8,44.3,12.8,42.9C50.4,50.3,38,39.7,33.4,33.6z"/>
		<path class="st13" d="M38.6,61.6c-0.7-0.1-1.4-0.3-2-0.6c-1.5-1.9-2.8-3.9-4-5.9c-1.9-3.4-3.4-7.1-4.3-10.9
			c-0.9-3.2-1.2-7.4-0.8-11.6c0.3,3.2,0.8,7.8,1.9,11.3c0.5,1.8,1.2,3.6,2,5.4c0.7,1.8,1.6,3.5,2.5,5.1c0.9,1.7,2,3.3,3,4.8
			c0.4,0.6,0.8,1.1,1.2,1.6C38.2,61.1,38.4,61.4,38.6,61.6z"/>
		<path class="st13" d="M39.9,61.8c-0.4,0-0.9,0-1.3-0.1c-0.2-0.3-0.4-0.5-0.6-0.8c-1-1.6-1.9-3.4-2.7-5.1c-0.6-1.4-1.2-2.9-1.8-4.3
			c-1.5-4.1-2.8-9.1-3.2-13.5c1.6,5.4,3.6,10.9,4.5,13c0.6,1.4,1.2,2.8,1.8,4.2l1,2.1c0.1,0.3,1,2,1.8,3.3c0,0,0,0,0,0
			C39.6,60.9,39.8,61.4,39.9,61.8z"/>
		<path class="st13" d="M41.2,61.2c-0.1,0.2-0.3,0.4-0.4,0.5c-0.2,0-0.5,0-0.7,0c-0.1-0.2-0.2-0.4-0.3-0.5c-0.1-0.2-0.3-0.5-0.4-0.7
			c0,0,0,0,0,0c-0.6-1.4-1.1-2.8-1.7-4.4c-0.5-1.4-0.9-2.8-1.2-4.2c-0.7-2.8-1.3-5.7-1.5-8.6c0.8,2.8,1.6,5.6,2.6,8.3
			C38.6,54.8,39.8,58,41.2,61.2z"/>
		<path class="st13" d="M36.8,59.7c0,0,0.9,1.8,2,1.1c0.5,0.4,0.9-0.5,0.9-0.5l1.1,1.4c0,0-2.4,0.3-3.5-0.4
			C36.3,60.7,36.8,59.7,36.8,59.7z"/>
		<path class="st14" d="M40.4,9.8c0,0,1.7-0.8,2.6,3c0.9,0,1.9,1,1.4,3.5c0.8,0.1,2,3.1,1.1,5.4c0.1-1.4-1.2-4.6-2.3-5
			c0.4-1.5-0.4-3.2-1.1-3.3C42.1,12,40.4,9.8,40.4,9.8z"/>
	</g>
	<g>
		<path class="st15" d="M20.4,71.4c-4.7,1.3-9.3,3.2-13.7,5.5c0.2-2.4,0.6-4.8,1-7.3c-2.1-1.2-4.4-2.4-6.7-3.4
			c5.2-2.7,10.5-4.9,16.1-6.4C18.2,63.7,19.3,67.5,20.4,71.4z"/>
		<path class="st15" d="M58.8,71.4c4.7,1.3,9.3,3.2,13.7,5.5c-0.2-2.4-0.6-4.8-1-7.3c2.1-1.2,4.4-2.4,6.7-3.4
			c-5.2-2.7-10.5-4.9-16.1-6.4C61,63.7,59.9,67.5,58.8,71.4z"/>
		<path class="st16" d="M11.7,69.6c-1.5-3.8-3-7.5-4.5-11.3c20.8-8.3,44-8.3,64.7,0c-1.5,3.8-3,7.5-4.5,11.3
			C49.6,62.4,29.6,62.4,11.7,69.6z"/>
		<path class="st17" d="M20.4,71.4c-2.8-0.8-5.6-1.4-8.6-1.9c2.4-1,4.9-1.8,7.4-2.5C19.5,68.5,20,70,20.4,71.4z"/>
		<path class="st17" d="M58.8,71.4c2.8-0.8,5.6-1.4,8.6-1.9c-2.4-1-4.9-1.8-7.4-2.5C59.6,68.5,59.2,70,58.8,71.4z"/>
	</g>
	<g>
		<g>
			<path class="st1" d="M30.7,61.1c0.4,0.2,0.9,0.3,1.5,0.3c0.8-0.1,1.3-0.6,1.2-1.2c-0.1-0.6-0.4-0.9-1.3-1.1
				c-1.1-0.3-1.7-0.7-1.8-1.6c-0.1-1,0.6-1.8,1.9-1.9c0.6-0.1,1.1,0,1.4,0.2l-0.2,0.7c-0.2-0.1-0.7-0.2-1.2-0.2
				c-0.9,0.1-1.1,0.6-1.1,1.1c0.1,0.6,0.5,0.8,1.4,1.1c1.1,0.3,1.7,0.8,1.8,1.7c0.1,1-0.5,1.9-2,2c-0.6,0.1-1.3-0.1-1.6-0.2
				L30.7,61.1z"/>
			<path class="st1" d="M40.7,58.4c0,2.2-1.2,3.3-2.8,3.4c-1.7,0-2.9-1.2-2.9-3.1c0-2,1.2-3.3,2.8-3.4
				C39.5,55.2,40.6,56.5,40.7,58.4z M35.8,58.6c0,1.3,0.8,2.5,2.1,2.5c1.3,0,2-1.2,2-2.7c0-1.3-0.7-2.5-2.1-2.5
				C36.4,55.9,35.8,57.2,35.8,58.6z"/>
			<path class="st1" d="M42,55.3l0.8,0l-0.2,3l0,0c0.2-0.2,0.4-0.4,0.5-0.6l2-2.3l1,0.1l-2.4,2.5l2.3,3.7l-1-0.1l-1.9-3.2l-0.6,0.7
				l-0.1,2.4l-0.8,0L42,55.3z"/>
			<path class="st1" d="M48.1,55.8L47.4,62l-0.8-0.1l0.6-6.3L48.1,55.8z"/>
		</g>
	</g>
	<g>
		<g>
			<path class="st7" d="M10.3,74.3l-2.1-8.2h1.1l1,4.2c0.2,1,0.5,2.1,0.6,2.8h0c0.1-0.8,0.4-1.8,0.7-2.9l1.1-4.2h1.1l1,4.2
				c0.2,1,0.5,2,0.6,2.8h0c0.2-0.9,0.4-1.8,0.7-2.8l1.1-4.2h1.1l-2.3,8.2h-1.1l-1-4.3c-0.3-1.1-0.4-1.9-0.5-2.7h0
				C13,68.2,12.9,69,12.5,70l-1.2,4.3H10.3z"/>
			<path class="st7" d="M19.9,71.7L19,74.3h-1.1l2.8-8.2H22l2.8,8.2h-1.1l-0.9-2.6H19.9z M22.6,70.9l-0.8-2.4
				c-0.2-0.5-0.3-1-0.4-1.5h0c-0.1,0.5-0.3,1-0.4,1.5l-0.8,2.4H22.6z"/>
			<path class="st7" d="M26,66.2c0.5-0.1,1.3-0.2,2-0.2c1.1,0,1.9,0.2,2.4,0.7c0.4,0.4,0.6,0.9,0.6,1.6c0,1.1-0.7,1.8-1.6,2.1v0
				c0.6,0.2,1,0.8,1.2,1.7c0.3,1.1,0.5,1.9,0.6,2.3h-1.1c-0.1-0.2-0.3-0.9-0.5-2c-0.2-1.1-0.7-1.6-1.6-1.6h-1v3.6H26V66.2z
				 M27.1,69.9h1.1c1.1,0,1.9-0.6,1.9-1.6c0-1.1-0.8-1.5-1.9-1.5c-0.5,0-0.9,0-1,0.1V69.9z"/>
			<path class="st7" d="M32,73.7l4.6-6.7v0h-4.2v-0.9H38v0.6l-4.5,6.7v0H38v0.9h-6V73.7z"/>
			<path class="st7" d="M41.2,74.3v-3.5l-2.6-4.7h1.2l1.2,2.3c0.3,0.6,0.6,1.1,0.8,1.7h0c0.2-0.5,0.5-1.1,0.8-1.7l1.2-2.3H45
				l-2.8,4.7v3.5H41.2z"/>
			<path class="st7" d="M47.7,74.3l-2.1-8.2h1.1l1,4.2c0.2,1,0.5,2.1,0.6,2.8h0c0.1-0.8,0.4-1.8,0.7-2.9l1.1-4.2h1.1l1,4.2
				c0.2,1,0.5,2,0.6,2.8h0c0.2-0.9,0.4-1.8,0.7-2.8l1.1-4.2h1.1l-2.3,8.2h-1.1l-1-4.3c-0.3-1.1-0.4-1.9-0.5-2.7h0
				c-0.1,0.8-0.3,1.6-0.6,2.7l-1.2,4.3H47.7z"/>
			<path class="st7" d="M56.7,74.3v-8.2h1.2l2.6,4.2c0.6,1,1.1,1.8,1.5,2.7l0,0c-0.1-1.1-0.1-2.1-0.1-3.4v-3.4h1v8.2h-1.1l-2.6-4.2
				c-0.6-0.9-1.1-1.9-1.5-2.7l0,0c0.1,1,0.1,2,0.1,3.4v3.5H56.7z"/>
			<path class="st7" d="M68.9,70.4h-3.2v3h3.6v0.9h-4.6v-8.2h4.4V67h-3.4v2.6h3.2V70.4z"/>
		</g>
		<g>
			<path class="st18" d="M10.3,74.3l-2.1-8.2h1.1l1,4.2c0.2,1,0.5,2.1,0.6,2.8h0c0.1-0.8,0.4-1.8,0.7-2.9l1.1-4.2h1.1l1,4.2
				c0.2,1,0.5,2,0.6,2.8h0c0.2-0.9,0.4-1.8,0.7-2.8l1.1-4.2h1.1l-2.3,8.2h-1.1l-1-4.3c-0.3-1.1-0.4-1.9-0.5-2.7h0
				C13,68.2,12.9,69,12.5,70l-1.2,4.3H10.3z"/>
			<path class="st18" d="M19.9,71.7L19,74.3h-1.1l2.8-8.2H22l2.8,8.2h-1.1l-0.9-2.6H19.9z M22.6,70.9l-0.8-2.4
				c-0.2-0.5-0.3-1-0.4-1.5h0c-0.1,0.5-0.3,1-0.4,1.5l-0.8,2.4H22.6z"/>
			<path class="st18" d="M26,66.2c0.5-0.1,1.3-0.2,2-0.2c1.1,0,1.9,0.2,2.4,0.7c0.4,0.4,0.6,0.9,0.6,1.6c0,1.1-0.7,1.8-1.6,2.1v0
				c0.6,0.2,1,0.8,1.2,1.7c0.3,1.1,0.5,1.9,0.6,2.3h-1.1c-0.1-0.2-0.3-0.9-0.5-2c-0.2-1.1-0.7-1.6-1.6-1.6h-1v3.6H26V66.2z
				 M27.1,69.9h1.1c1.1,0,1.9-0.6,1.9-1.6c0-1.1-0.8-1.5-1.9-1.5c-0.5,0-0.9,0-1,0.1V69.9z"/>
			<path class="st18" d="M32,73.7l4.6-6.7v0h-4.2v-0.9H38v0.6l-4.5,6.7v0H38v0.9h-6V73.7z"/>
			<path class="st18" d="M41.2,74.3v-3.5l-2.6-4.7h1.2l1.2,2.3c0.3,0.6,0.6,1.1,0.8,1.7h0c0.2-0.5,0.5-1.1,0.8-1.7l1.2-2.3H45
				l-2.8,4.7v3.5H41.2z"/>
			<path class="st18" d="M47.7,74.3l-2.1-8.2h1.1l1,4.2c0.2,1,0.5,2.1,0.6,2.8h0c0.1-0.8,0.4-1.8,0.7-2.9l1.1-4.2h1.1l1,4.2
				c0.2,1,0.5,2,0.6,2.8h0c0.2-0.9,0.4-1.8,0.7-2.8l1.1-4.2h1.1l-2.3,8.2h-1.1l-1-4.3c-0.3-1.1-0.4-1.9-0.5-2.7h0
				c-0.1,0.8-0.3,1.6-0.6,2.7l-1.2,4.3H47.7z"/>
			<path class="st18" d="M56.7,74.3v-8.2h1.2l2.6,4.2c0.6,1,1.1,1.8,1.5,2.7l0,0c-0.1-1.1-0.1-2.1-0.1-3.4v-3.4h1v8.2h-1.1l-2.6-4.2
				c-0.6-0.9-1.1-1.9-1.5-2.7l0,0c0.1,1,0.1,2,0.1,3.4v3.5H56.7z"/>
			<path class="st18" d="M68.9,70.4h-3.2v3h3.6v0.9h-4.6v-8.2h4.4V67h-3.4v2.6h3.2V70.4z"/>
		</g>
		<g>
			<path class="st7" d="M10.3,74.3l-2.1-8.2h1.1l1,4.2c0.2,1,0.5,2.1,0.6,2.8h0c0.1-0.8,0.4-1.8,0.7-2.9l1.1-4.2h1.1l1,4.2
				c0.2,1,0.5,2,0.6,2.8h0c0.2-0.9,0.4-1.8,0.7-2.8l1.1-4.2h1.1l-2.3,8.2h-1.1l-1-4.3c-0.3-1.1-0.4-1.9-0.5-2.7h0
				C13,68.2,12.9,69,12.5,70l-1.2,4.3H10.3z"/>
			<path class="st7" d="M19.9,71.7L19,74.3h-1.1l2.8-8.2H22l2.8,8.2h-1.1l-0.9-2.6H19.9z M22.6,70.9l-0.8-2.4
				c-0.2-0.5-0.3-1-0.4-1.5h0c-0.1,0.5-0.3,1-0.4,1.5l-0.8,2.4H22.6z"/>
			<path class="st7" d="M26,66.2c0.5-0.1,1.3-0.2,2-0.2c1.1,0,1.9,0.2,2.4,0.7c0.4,0.4,0.6,0.9,0.6,1.6c0,1.1-0.7,1.8-1.6,2.1v0
				c0.6,0.2,1,0.8,1.2,1.7c0.3,1.1,0.5,1.9,0.6,2.3h-1.1c-0.1-0.2-0.3-0.9-0.5-2c-0.2-1.1-0.7-1.6-1.6-1.6h-1v3.6H26V66.2z
				 M27.1,69.9h1.1c1.1,0,1.9-0.6,1.9-1.6c0-1.1-0.8-1.5-1.9-1.5c-0.5,0-0.9,0-1,0.1V69.9z"/>
			<path class="st7" d="M32,73.7l4.6-6.7v0h-4.2v-0.9H38v0.6l-4.5,6.7v0H38v0.9h-6V73.7z"/>
			<path class="st7" d="M41.2,74.3v-3.5l-2.6-4.7h1.2l1.2,2.3c0.3,0.6,0.6,1.1,0.8,1.7h0c0.2-0.5,0.5-1.1,0.8-1.7l1.2-2.3H45
				l-2.8,4.7v3.5H41.2z"/>
			<path class="st7" d="M47.7,74.3l-2.1-8.2h1.1l1,4.2c0.2,1,0.5,2.1,0.6,2.8h0c0.1-0.8,0.4-1.8,0.7-2.9l1.1-4.2h1.1l1,4.2
				c0.2,1,0.5,2,0.6,2.8h0c0.2-0.9,0.4-1.8,0.7-2.8l1.1-4.2h1.1l-2.3,8.2h-1.1l-1-4.3c-0.3-1.1-0.4-1.9-0.5-2.7h0
				c-0.1,0.8-0.3,1.6-0.6,2.7l-1.2,4.3H47.7z"/>
			<path class="st7" d="M56.7,74.3v-8.2h1.2l2.6,4.2c0.6,1,1.1,1.8,1.5,2.7l0,0c-0.1-1.1-0.1-2.1-0.1-3.4v-3.4h1v8.2h-1.1l-2.6-4.2
				c-0.6-0.9-1.1-1.9-1.5-2.7l0,0c0.1,1,0.1,2,0.1,3.4v3.5H56.7z"/>
			<path class="st7" d="M68.9,70.4h-3.2v3h3.6v0.9h-4.6v-8.2h4.4V67h-3.4v2.6h3.2V70.4z"/>
		</g>
	</g>
</g>
</svg>
